# xmcd
#
# Track frame offsets:
#	150
#	11237
#	20703
#	31090
#	47223
#	55897
#	67657
#	77890
#	92419
#	105831
#	115680
#	126921
#	139183
#	150598
#	162519
#	172078
#	184759
#	198221
#	209591
#	224652
#	233348
#	244411
#	253762
#	264169
#	274104
#	283709
#	297146
#	306615
#	318821
#	328532
#
# Disc length: 4511 seconds
#
# Revision: 0
# Processed by: cddbd v1.5.1PL2 Copyright (c) Steve Scherf et al.
# Submitted via: dBpowerAMP V4.0
#
DISCID=b2119d1e
DTITLE=Various Artist - Story Songs For Country Folks
DYEAR=1900
DGENRE=
TTITLE0=Faron Young - Ya'll Come
TTITLE1=Rhinestones
TTITLE2=Saw Mill
TTITLE3=Family Bible
TTITLE4=Company's Time
TTITLE5=Pickin' Time
TTITLE6=Share Cropper's Family
TTITLE7=Old Court House
TTITLE8=Po' Folks
TTITLE9=Black Land Farmer
TTITLE10=The Yellow Bandana
TTITLE11=What Will I Tell My Darling
TTITLE12=We've Got Something In Common
TTITLE13=I've Come To Say Goodbby
TTITLE14=Closer
TTITLE15=How Much I Must Have Loved You
TTITLE16=I MIss You Already
TTITLE17=Live Fast, Love Hard, And Die Young
TTITLE18=Just Out Of Reach
TTITLE19=I've Got Five Dollars
TTITLE20=Sweet Dreams
TTITLE21=A Place For Girls Like You
TTITLE22=I Just Don't Know How To Say No
TTITLE23=Let Me Hear You Say I Love You
TTITLE24=My Ddreams
TTITLE25=You Had A Call
TTITLE26=I Might As Well Be Alone
TTITLE27=Unmitigated Gall
TTITLE28=Some Of Your Memories
TTITLE29=Faron Young - I Woke Up On The Wrong Side Of The World
EXTD=Bob Dunham
EXTT0=
EXTT1=
EXTT2=
EXTT3=
EXTT4=
EXTT5=
EXTT6=
EXTT7=
EXTT8=
EXTT9=
EXTT10=
EXTT11=
EXTT12=
EXTT13=
EXTT14=
EXTT15=
EXTT16=
EXTT17=
EXTT18=
EXTT19=
EXTT20=
EXTT21=
EXTT22=
EXTT23=
EXTT24=
EXTT25=
EXTT26=
EXTT27=
EXTT28=
EXTT29=
PLAYORDER=
